<svg xmlns="http://www.w3.org/2000/svg" width="960" height="540" viewBox="0 0 960 540" role="img" aria-labelledby="title desc">
<title id="title">Surface Intelligence Issue 14: The ADA Lawsuit Machine Is Real</title>
<desc id="desc">Abstract dark editorial thumbnail for The ADA Lawsuit Machine Is Real.</desc>
<defs>
  <linearGradient id="g" x1="0" x2="1" y1="0" y2="1"><stop stop-color="#070707" offset="0"/><stop stop-color="#1a0a0a" offset="0.55"/><stop stop-color="#3b0000" offset="1"/></linearGradient>
  <radialGradient id="r" cx="78%" cy="18%" r="70%"><stop stop-color="#fb7185" stop-opacity="0.38"/><stop offset="1" stop-color="#fb7185" stop-opacity="0"/></radialGradient>
  <pattern id="grid" width="48" height="48" patternUnits="userSpaceOnUse"><path d="M48 0H0V48" fill="none" stroke="#ffffff" stroke-opacity="0.05"/></pattern>
</defs>
<rect width="960" height="540" rx="42" fill="url(#g)"/>
<rect width="960" height="540" rx="42" fill="url(#r)"/>
<rect width="960" height="540" rx="42" fill="url(#grid)"/>
<path d="M0 400 C200 320 360 480 540 390 S800 310 960 370 V540 H0Z" fill="#000" fill-opacity="0.35"/>
<g transform="translate(56 58)">
  <rect x="0" y="0" width="154" height="42" rx="21" fill="#fb7185" fill-opacity="0.18" stroke="#fb7185" stroke-opacity="0.5"/>
  <text x="20" y="27" font-family="JetBrains Mono, monospace" font-size="17" font-weight="700" letter-spacing="2" fill="#fb7185">ISSUE 14</text>
</g>
<g transform="translate(56 56)">
  <rect x="174" y="0" width="160" height="42" rx="21" fill="#facc15" fill-opacity="0.12" stroke="#facc15" stroke-opacity="0.4"/>
  <text x="194" y="27" font-family="JetBrains Mono, monospace" font-size="14" font-weight="700" letter-spacing="1.5" fill="#facc15">ADA RISK</text>
</g>
<g transform="translate(56 280)">
  <text font-family="IBM Plex Sans, Arial, sans-serif" font-size="58" font-weight="700" fill="#fafafa" letter-spacing="-2"><tspan x="0" y="0">The ADA Lawsuit</tspan><tspan x="0" y="72">Machine Is Real.</tspan></text>
  <text font-family="IBM Plex Sans, Arial, sans-serif" font-size="24" font-weight="600" fill="#d4d4d8"><tspan x="0" y="122">Act before it finds your property.</tspan></text>
</g>
<g transform="translate(56 466)">
  <text font-family="JetBrains Mono, monospace" font-size="18" font-weight="700" fill="#facc15" letter-spacing="3">SURFACE INTELLIGENCE</text>
</g>
<g transform="translate(746 58) rotate(45)">
  <rect width="280" height="18" fill="#fb7185" fill-opacity="0.6"/><rect y="36" width="280" height="18" fill="#050505"/><rect y="72" width="280" height="18" fill="#fb7185" fill-opacity="0.4"/>
</g>
</svg>
